HIERARCHY
ROOT hip
{
	OFFSET 0.000000 0.000000 0.000000 
	CHANNELS 6 Xposition Yposition Zposition Xrotation Zrotation Yrotation
	JOINT abdomen
	{
		OFFSET 0.000000 3.402643 0.000000 
		CHANNELS 3 Xrotation Zrotation Yrotation
		JOINT chest
		{
			OFFSET 0.000000 8.438565 -0.680529 
			CHANNELS 3 Xrotation Zrotation Yrotation
			JOINT neck
			{
				OFFSET 0.000000 10.207942 -0.272212 
				CHANNELS 3 Xrotation Zrotation Yrotation
				JOINT head
				{
					OFFSET 0.000000 3.130431 0.000000 
					CHANNELS 3 Xrotation Zrotation Yrotation
					End Site
					{
						OFFSET 0.000000 3.130435 0.000000 
					}
				}
			}
			JOINT lCollar
			{
				OFFSET 3.470700 6.669187 -0.816635 
				CHANNELS 3 Yrotation Zrotation Xrotation
				JOINT lShldr
				{
					OFFSET 3.198488 0.000000 0.000000 
					CHANNELS 3 Zrotation Yrotation Xrotation
					JOINT lForeArm
					{
						OFFSET 10.139888 0.000000 0.000000 
						CHANNELS 3 Yrotation Zrotation Xrotation
						JOINT lHand
						{
							OFFSET 8.370511 0.000000 0.000000 
							CHANNELS 3 Zrotation Yrotation Xrotation
							End Site
							{
								OFFSET 4.083176 0.000000 0.000000 
							}
						}
					}
				}
			}
			JOINT rCollar
			{
				OFFSET -3.470700 6.669187 -0.816635 
				CHANNELS 3 Yrotation Zrotation Xrotation
				JOINT rShldr
				{
					OFFSET -3.198488 0.000000 0.000000 
					CHANNELS 3 Zrotation Yrotation Xrotation
					JOINT rForeArm
					{
						OFFSET -10.139888 0.000000 0.000000 
						CHANNELS 3 Yrotation Zrotation Xrotation
						JOINT rHand
						{
							OFFSET -8.370511 0.000000 0.000000 
							CHANNELS 3 Zrotation Yrotation Xrotation
							End Site
							{
								OFFSET -4.083176 0.000000 0.000000 
							}
						}
					}
				}
			}
		}
	}
	JOINT lThigh
	{
		OFFSET 5.308129 -1.633274 1.361059 
		CHANNELS 3 Xrotation Zrotation Yrotation
		JOINT lShin
		{
			OFFSET -2.041588 -20.007561 0.000000 
			CHANNELS 3 Xrotation Zrotation Yrotation
			JOINT lFoot
			{
				OFFSET 0.000000 -19.190928 -1.224953 
				CHANNELS 3 Xrotation Yrotation Zrotation
				End Site
				{
					OFFSET 0.000000 -2.449906 4.627600 
				}
			}
		}
	}
	JOINT rThigh
	{
		OFFSET -5.308129 -1.633274 1.361059 
		CHANNELS 3 Xrotation Zrotation Yrotation
		JOINT rShin
		{
			OFFSET 2.041588 -20.007561 0.000000 
			CHANNELS 3 Xrotation Zrotation Yrotation
			JOINT rFoot
			{
				OFFSET 0.000000 -19.190928 -1.224953 
				CHANNELS 3 Xrotation Yrotation Zrotation
				End Site
				{
					OFFSET 0.000000 -2.449906 4.627600 
				}
			}
		}
	}
}
MOTION
Frames: 6
Frame Time: 0.016667
-2.969258 48.518715 5.783866 -0.679835 -1.450883 -50.999397 0.000000 0.000000 0.000000 5.715552 -0.136534 2.978507 -8.603516 0.000000 0.000000 16.068846 -4.857109 22.977383 -3.004437 8.316357 0.649617 -87.231407 13.398995 -43.950447 -24.076290 -0.921506 2.585564 1.644208 -3.403038 -3.510995 2.985133 -8.336106 0.651042 92.914894 -16.275373 -40.484962 35.323452 0.728469 2.709016 -1.662539 3.382353 -3.511080 3.523176 14.712658 18.260508 1.399236 -4.033034 -0.234917 0.507757 0.013968 -0.015627 18.104511 -9.218801 -20.915339 0.110420 4.034104 0.111308 -7.675657 0.043890 0.009379 
-2.870862 48.475636 5.502169 -0.089069 -1.225389 -50.445580 0.000000 0.000000 0.000000 6.017539 -0.994480 3.262074 -8.603516 0.000000 0.000000 14.146924 -2.442469 18.024601 -3.004437 8.316357 0.649617 -87.341965 12.258584 -42.525703 -27.266495 -0.868572 2.612700 1.644208 -3.403038 -3.510995 2.985133 -8.336106 0.651042 93.773094 -14.259769 -33.487083 38.192253 0.696771 2.747954 -1.662539 3.382353 -3.511080 1.972066 15.194517 17.633202 2.162367 -4.038023 -0.271130 0.517279 0.016457 0.006157 16.690748 -8.699545 -21.394476 1.423566 4.024245 0.187615 -7.861210 0.040411 0.018583 
-2.772530 48.432743 5.220958 0.501651 -1.006729 -49.893421 0.000000 0.000000 0.000000 6.310411 -1.861664 3.546538 -8.603516 0.000000 0.000000 12.022025 -0.209347 12.988336 -3.004437 8.316357 0.649617 -87.461281 11.116056 -41.120739 -30.437281 -0.826280 2.652226 1.644208 -3.403038 -3.510995 2.985133 -8.336106 0.651042 94.875923 -12.329675 -26.520161 41.032509 0.658965 2.777652 -1.662539 3.382353 -3.511080 0.428427 15.661708 16.983540 2.901840 -4.035417 -0.344943 0.574511 0.040890 0.015275 15.284558 -8.172042 -21.873537 2.711087 4.014393 0.252492 -8.066240 0.048402 0.022362 
-2.681622 48.414429 4.998866 0.803120 -0.919905 -49.491180 0.000000 0.000000 0.000000 6.806700 -3.088251 3.979876 -8.613282 0.000000 0.000000 10.265529 2.279517 6.646222 -3.004437 8.316357 0.649617 -86.340019 8.411459 -40.226162 -30.564550 -0.822394 2.648765 1.644208 -3.403038 -3.510995 2.985133 -8.336106 0.651042 95.783257 -8.466660 -20.586668 41.433903 0.658670 2.782661 -1.662539 3.382353 -3.511080 -0.098343 15.964737 16.510502 2.602196 -4.039141 -0.303303 0.867507 0.053285 0.009335 14.259769 -7.859732 -22.213339 3.811415 4.002920 0.342630 -8.232332 0.035968 0.016681 
-2.591070 48.396416 4.777577 1.103486 -0.837871 -49.089104 0.000000 0.000000 0.000000 7.303866 -4.313373 4.416771 -8.603516 0.000000 0.000000 8.249522 4.550749 0.215716 -3.004437 8.316357 0.649617 -85.246399 5.696463 -39.386871 -30.662437 -0.822130 2.654494 1.644208 -3.403038 -3.510995 2.985133 -8.336106 0.651042 97.082909 -4.702020 -14.667671 41.806042 0.657138 2.788537 -1.662539 3.382353 -3.511080 -0.636100 16.253370 16.033045 2.280735 -4.039775 -0.250442 1.180187 0.068681 -0.016372 13.241496 -7.539102 -22.556261 4.890423 3.984857 0.410788 -8.388521 0.046782 0.021774 
-2.542289 48.414921 4.651024 1.122846 -0.882430 -48.738220 0.000000 0.000000 0.000000 7.841070 -5.556436 4.837165 -8.603516 0.000000 0.000000 6.939417 6.590027 -6.389598 -3.004437 8.316357 0.649617 -83.228287 1.861367 -39.563648 -27.432665 -0.870877 2.617453 1.644208 -3.403038 -3.510995 2.985133 -8.336106 0.651042 98.535004 0.453339 -12.179031 39.377190 0.679253 2.755519 -1.662539 3.382353 -3.511080 -0.098410 16.355303 15.698882 0.883919 -4.036869 -0.167741 1.746816 0.082204 -0.032553 12.924953 -7.362393 -22.837885 5.346722 3.987027 0.444254 -8.447154 0.036686 0.027843 
